<svg width="1440" height="786" viewBox="0 0 1440 786" fill="none" xmlns="http://www.w3.org/2000/svg">
<rect x="-240" width="1920" height="786" fill="url(#paint0_linear_207_470)"/>
<rect opacity="0.6" x="-240" width="1920" height="786" fill="url(#paint1_linear_207_470)"/>
<mask id="mask0_207_470" style="mask-type:alpha" maskUnits="userSpaceOnUse" x="-240" y="0" width="1920" height="786">
<rect x="-240" width="1920" height="786" fill="white"/>
</mask>
<g mask="url(#mask0_207_470)">
<path d="M1135.5 305.002C1062.61 304.696 992.57 333.176 940.739 384.199C888.907 435.222 859.513 504.624 859 577.189C858.95 612.976 866.078 648.413 879.965 681.421C893.853 714.429 914.222 744.344 939.876 769.412C950.744 780.043 965.371 786 980.607 786C995.844 786 1010.47 780.043 1021.34 769.412C1026.69 764.173 1030.93 757.927 1033.83 751.037C1036.73 744.148 1038.22 736.753 1038.22 729.284C1038.22 721.814 1036.73 714.42 1033.83 707.53C1030.93 700.641 1026.69 694.395 1021.34 689.156C1006.38 674.513 994.505 657.054 986.397 637.794C978.289 618.535 974.113 597.861 974.113 576.979C974.113 556.096 978.289 535.422 986.397 516.163C994.505 496.904 1006.38 479.444 1021.34 464.801C1051.74 435.029 1092.67 418.344 1135.31 418.344C1177.95 418.344 1218.89 435.029 1249.29 464.801C1264.24 479.444 1276.12 496.904 1284.23 516.163C1292.34 535.422 1296.51 556.096 1296.51 576.979C1296.51 597.861 1292.34 618.535 1284.23 637.794C1276.12 657.054 1264.24 674.513 1249.29 689.156C1243.94 694.395 1239.69 700.641 1236.79 707.53C1233.89 714.42 1232.4 721.814 1232.4 729.284C1232.4 736.753 1233.89 744.148 1236.79 751.037C1239.69 757.927 1243.94 764.173 1249.29 769.412C1260.15 780.043 1274.78 786 1290.02 786C1305.25 786 1319.88 780.043 1330.75 769.412C1356.47 744.375 1376.91 714.474 1390.86 681.465C1404.81 648.455 1412 613.003 1412 577.189C1411.49 504.624 1382.09 435.222 1330.26 384.199C1278.43 333.176 1208.39 304.696 1135.5 305.002Z" fill="url(#paint2_linear_207_470)"/>
</g>
<defs>
<linearGradient id="paint0_linear_207_470" x1="-220.667" y1="239.634" x2="1480.9" y2="1011.76" gradientUnits="userSpaceOnUse">
<stop stop-color="#00A5F0"/>
<stop offset="1" stop-color="#00D7D7"/>
</linearGradient>
<linearGradient id="paint1_linear_207_470" x1="400.5" y1="1058.37" x2="805.009" y2="73.1841" gradientUnits="userSpaceOnUse">
<stop stop-color="#0B6EB6"/>
<stop offset="1" stop-color="#00D7D7" stop-opacity="0"/>
</linearGradient>
<linearGradient id="paint2_linear_207_470" x1="1191.5" y1="510" x2="1135.43" y2="745.603" gradientUnits="userSpaceOnUse">
<stop stop-color="white"/>
<stop offset="1" stop-color="white" stop-opacity="0"/>
</linearGradient>
</defs>
</svg>
